<svg width="724" height="151" viewBox="0 0 724 151" fill="none" xmlns="http://www.w3.org/2000/svg">
<path d="M2.3999 150.9V134.7H20.8499C23.5499 134.7 24.8999 133.2 24.8999 130.2V21.3001C24.8999 18.3001 23.5499 16.8001 20.8499 16.8001H2.3999V0.600098H27.8999C32.3999 0.600098 36.0499 2.05009 38.8499 4.95009C41.7499 7.75009 43.1999 11.4001 43.1999 15.9001V135.6C43.1999 140.1 41.7499 143.75 38.8499 146.55C36.0499 149.45 32.3999 150.9 27.8999 150.9H2.3999ZM79.5597 150.9C75.0597 150.9 71.3597 149.45 68.4597 146.55C65.6597 143.75 64.2597 140.1 64.2597 135.6V15.9001C64.2597 11.4001 65.6597 7.75009 68.4597 4.95009C71.3597 2.05009 75.0597 0.600098 79.5597 0.600098H105.06V16.8001H86.6097C83.9097 16.8001 82.5597 18.3001 82.5597 21.3001V130.2C82.5597 133.2 83.9097 134.7 86.6097 134.7H105.06V150.9H79.5597Z" fill="black"/>
<path d="M197.2 129.1C190.5 129.1 185.35 127.95 181.75 125.65C178.15 123.35 175.5 120.8 173.8 118H171.1V127H152.5V22H171.4V61.15H174.1C175.2 59.35 176.65 57.65 178.45 56.05C180.35 54.45 182.8 53.15 185.8 52.15C188.9 51.05 192.7 50.5 197.2 50.5C203.2 50.5 208.75 52 213.85 55C218.95 57.9 223.05 62.2 226.15 67.9C229.25 73.6 230.8 80.5 230.8 88.6V91C230.8 99.1 229.25 106 226.15 111.7C223.05 117.4 218.95 121.75 213.85 124.75C208.75 127.65 203.2 129.1 197.2 129.1ZM191.5 112.6C197.3 112.6 202.15 110.75 206.05 107.05C209.95 103.25 211.9 97.75 211.9 90.55V89.05C211.9 81.85 209.95 76.4 206.05 72.7C202.25 68.9 197.4 67 191.5 67C185.7 67 180.85 68.9 176.95 72.7C173.05 76.4 171.1 81.85 171.1 89.05V90.55C171.1 97.75 173.05 103.25 176.95 107.05C180.85 110.75 185.7 112.6 191.5 112.6ZM248.154 127V52.6H266.754V61H269.454C270.554 58 272.354 55.8 274.854 54.4C277.454 53 280.454 52.3 283.854 52.3H292.854V69.1H283.554C278.754 69.1 274.804 70.4 271.704 73C268.604 75.5 267.054 79.4 267.054 84.7V127H248.154ZM328.969 129.1C323.669 129.1 318.919 128.2 314.719 126.4C310.519 124.5 307.169 121.8 304.669 118.3C302.269 114.7 301.069 110.35 301.069 105.25C301.069 100.15 302.269 95.9 304.669 92.5C307.169 89 310.569 86.4 314.869 84.7C319.269 82.9 324.269 82 329.869 82H350.269V77.8C350.269 74.3 349.169 71.45 346.969 69.25C344.769 66.95 341.269 65.8 336.469 65.8C331.769 65.8 328.269 66.9 325.969 69.1C323.669 71.2 322.169 73.95 321.469 77.35L304.069 71.5C305.269 67.7 307.169 64.25 309.769 61.15C312.469 57.95 316.019 55.4 320.419 53.5C324.919 51.5 330.369 50.5 336.769 50.5C346.569 50.5 354.319 52.95 360.019 57.85C365.719 62.75 368.569 69.85 368.569 79.15V106.9C368.569 109.9 369.969 111.4 372.769 111.4H378.769V127H366.169C362.469 127 359.419 126.1 357.019 124.3C354.619 122.5 353.419 120.1 353.419 117.1V116.95H350.569C350.169 118.15 349.269 119.75 347.869 121.75C346.469 123.65 344.269 125.35 341.269 126.85C338.269 128.35 334.169 129.1 328.969 129.1ZM332.269 113.8C337.569 113.8 341.869 112.35 345.169 109.45C348.569 106.45 350.269 102.5 350.269 97.6V96.1H331.219C327.719 96.1 324.969 96.85 322.969 98.35C320.969 99.85 319.969 101.95 319.969 104.65C319.969 107.35 321.019 109.55 323.119 111.25C325.219 112.95 328.269 113.8 332.269 113.8ZM426.073 129.1C418.873 129.1 412.323 127.6 406.423 124.6C400.623 121.6 396.023 117.25 392.623 111.55C389.223 105.85 387.523 98.95 387.523 90.85V88.75C387.523 80.65 389.223 73.75 392.623 68.05C396.023 62.35 400.623 58 406.423 55C412.323 52 418.873 50.5 426.073 50.5C433.173 50.5 439.273 51.75 444.373 54.25C449.473 56.75 453.573 60.2 456.673 64.6C459.873 68.9 461.973 73.8 462.973 79.3L444.673 83.2C444.273 80.2 443.373 77.5 441.973 75.1C440.573 72.7 438.573 70.8 435.973 69.4C433.473 68 430.323 67.3 426.523 67.3C422.723 67.3 419.273 68.15 416.173 69.85C413.173 71.45 410.773 73.9 408.973 77.2C407.273 80.4 406.423 84.35 406.423 89.05V90.55C406.423 95.25 407.273 99.25 408.973 102.55C410.773 105.75 413.173 108.2 416.173 109.9C419.273 111.5 422.723 112.3 426.523 112.3C432.223 112.3 436.523 110.85 439.423 107.95C442.423 104.95 444.323 101.05 445.123 96.25L463.423 100.6C462.123 105.9 459.873 110.75 456.673 115.15C453.573 119.45 449.473 122.85 444.373 125.35C439.273 127.85 433.173 129.1 426.073 129.1ZM479.014 127V22H497.914V80.05H500.614L525.214 52.6H549.814L515.464 88.6L551.014 127H526.714L500.614 97.45H497.914V127H479.014ZM593.041 129.1C585.641 129.1 579.091 127.55 573.391 124.45C567.791 121.25 563.391 116.8 560.191 111.1C557.091 105.3 555.541 98.5 555.541 90.7V88.9C555.541 81.1 557.091 74.35 560.191 68.65C563.291 62.85 567.641 58.4 573.241 55.3C578.841 52.1 585.341 50.5 592.741 50.5C600.041 50.5 606.391 52.15 611.791 55.45C617.191 58.65 621.391 63.15 624.391 68.95C627.391 74.65 628.891 81.3 628.891 88.9V95.35H574.741C574.941 100.45 576.841 104.6 580.441 107.8C584.041 111 588.441 112.6 593.641 112.6C598.941 112.6 602.841 111.45 605.341 109.15C607.841 106.85 609.741 104.3 611.041 101.5L626.491 109.6C625.091 112.2 623.041 115.05 620.341 118.15C617.741 121.15 614.241 123.75 609.841 125.95C605.441 128.05 599.841 129.1 593.041 129.1ZM574.891 81.25H609.691C609.291 76.95 607.541 73.5 604.441 70.9C601.441 68.3 597.491 67 592.591 67C587.491 67 583.441 68.3 580.441 70.9C577.441 73.5 575.591 76.95 574.891 81.25ZM671.723 127C666.823 127 662.823 125.5 659.723 122.5C656.723 119.4 655.223 115.3 655.223 110.2V68.2H636.623V52.6H655.223V29.5H674.123V52.6H694.523V68.2H674.123V106.9C674.123 109.9 675.523 111.4 678.323 111.4H692.723V127H671.723Z" fill="black"/>
</svg>
